<?xml version="1.0" encoding="utf-8"?>
<!-- Generator: Adobe Illustrator 16.0.0, SVG Export Plug-In . SVG Version: 6.00 Build 0)  -->
<!DOCTYPE svg PUBLIC "-//W3C//DTD SVG 1.1//EN" "http://www.w3.org/Graphics/SVG/1.1/DTD/svg11.dtd">
<svg version="1.1" xmlns="http://www.w3.org/2000/svg" xmlns:xlink="http://www.w3.org/1999/xlink" x="0px" y="0px" width="3710px"
	 height="3710px" viewBox="0 0 3710 3710" enable-background="new 0 0 3710 3710" xml:space="preserve">
<g id="Background" display="none">
	<g display="inline">
		<g>
			<rect fill="#FFFFFF" width="3710" height="3710"/>
		</g>
	</g>
</g>
<g id="Illustration">
	<g>
		<linearGradient id="SVGID_1_" gradientUnits="userSpaceOnUse" x1="3445.8545" y1="3280.417" x2="1434.6722" y2="1520.635">
			<stop  offset="0" style="stop-color:#DAE3FE"/>
			<stop  offset="1" style="stop-color:#E9EFFD"/>
		</linearGradient>
		<path display="none" fill="url(#SVGID_1_)" d="M3096.524,2370.395c-258.302,617.093-946.359,962.791-1543.044,869.541
			c-97.092-15.175-363.274-60.375-598.941-273.615c-453.676-410.503-550.697-1223.353-184.731-1796.187
			c266.359-416.923,743.836-653.263,1197.532-641.44c97.726,2.546,472.253,18.239,801.396,293.614
			c48.346,40.447,154.976,136.561,251.073,289.039C3245.468,1469.392,3264.863,1968.229,3096.524,2370.395z"/>
		<g>
			
				<linearGradient id="SVGID_2_" gradientUnits="userSpaceOnUse" x1="1569.6445" y1="654.7256" x2="-583.6182" y2="3995.9988" gradientTransform="matrix(-1 0 0 1 2257.3281 0)">
				<stop  offset="0" style="stop-color:#4F52FF"/>
				<stop  offset="1" style="stop-color:#4042E2"/>
			</linearGradient>
			<path fill="url(#SVGID_2_)" d="M479.144,2255.246c44.102-188.235,188.316-336.003,371.909-381.193
				c126.22-31.068,247.318-14.396,349.675,35.947c33.949,16.697,74.292-2.205,83.698-39.588
				c90.482-359.6,408.928-625.261,787.91-625.261c449.385,0,813.684,373.524,813.684,834.29c0,12.231-0.241,28.938-0.449,44.973
				c1.591,34.456,16.265,49.085,38.166,52.759c176.068,18.789,314.438,167.612,322.116,351.173
				c8.816,210.767-158.49,385.387-364.24,385.387H978.466C652.674,2913.732,397.586,2603.346,479.144,2255.246z"/>
			<path opacity="0.21" fill="#91B3FA" d="M626.541,2325.79c39.377-168.069,168.142-300.006,332.065-340.354
				c112.699-27.741,220.823-12.854,312.214,32.096c30.313,14.908,66.333-1.969,74.731-35.347
				c80.789-321.075,365.118-558.276,703.499-558.276c401.244,0,726.515,333.509,726.515,744.912c0,10.921-0.215,25.838-0.401,40.154
				c1.421,30.765,14.522,43.827,34.078,47.107c157.204,16.775,280.751,149.655,287.606,313.551
				c7.871,188.187-141.511,344.1-325.219,344.1H1072.369C781.479,2913.732,553.721,2636.598,626.541,2325.79z"/>
		</g>
		<g>
			
				<linearGradient id="SVGID_3_" gradientUnits="userSpaceOnUse" x1="-617.4521" y1="3100.1992" x2="-258.9361" y2="2024.6477" gradientTransform="matrix(-1 0 0 1 1155.7773 0)">
				<stop  offset="0" style="stop-color:#09005D"/>
				<stop  offset="1" style="stop-color:#1A0F91"/>
			</linearGradient>
			<path fill="url(#SVGID_3_)" d="M847.51,3139.217c0,15.424,12.633,28.044,28.072,28.044h1517.99
				c15.438,0,28.071-12.62,28.071-28.044l12.631-872.348c0-15.424-18.172-45.536-51.477-43.273L899.25,2185.209
				c-19.372-0.501-38.103,6.955-51.819,20.628c-13.719,13.674-21.225,32.368-20.767,51.723L847.51,3139.217z"/>
			<path fill="#7D97F4" d="M875.224,3112.312c0,14.605,11.951,26.558,26.558,26.558h1455.184c14.606,0,26.558-11.952,26.558-26.558
				l11.919-791.925c-1.403-47.656-43.185-64.784-68.512-63.772l-1421.845-38.146c-13.61-0.364-26.769,4.879-36.407,14.493
				c-9.64,9.614-14.941,22.772-14.6,36.383L875.224,3112.312z"/>
			<g>
				<path fill="#FFFFFF" d="M2367.798,2736.092c-0.02,0-0.038,0-0.038,0c-2.171-0.031-3.888-1.799-3.854-3.951l0.942-64.224
					c0.03-2.129,1.768-3.834,3.889-3.834c0.02,0,0.038,0,0.038,0c2.17,0.031,3.887,1.799,3.854,3.95l-0.942,64.224
					C2371.655,2734.386,2369.919,2736.092,2367.798,2736.092z"/>
				<path fill="#FFFFFF" d="M2370.109,2578.71c0,0-0.039,0-0.058,0c-2.151-0.031-3.868-1.803-3.835-3.95l3.61-245.979
					c-0.067-14.611-4.502-26.277-13.183-34.595c-16.203-15.523-41.929-14.731-43.013-14.681l-454.453-12.187
					c-2.148-0.055-3.844-1.846-3.785-3.993c0.056-2.148,1.707-3.979,3.995-3.784l454.183,12.187
					c2.826-0.167,30.217-0.641,48.458,16.837c10.262,9.832,15.504,23.379,15.582,40.254l-3.613,246.057
					C2373.967,2577.005,2372.23,2578.71,2370.109,2578.71z"/>
			</g>
			
				<linearGradient id="SVGID_4_" gradientUnits="userSpaceOnUse" x1="216.7061" y1="3035.9189" x2="-1379.6346" y2="3424.2183" gradientTransform="matrix(-1 0 0 1 1155.7773 0)">
				<stop  offset="0" style="stop-color:#09005D"/>
				<stop  offset="1" style="stop-color:#1A0F91"/>
			</linearGradient>
			<path fill="url(#SVGID_4_)" d="M730.019,3239.677H2508.36c3.109,0,5.654-2.545,5.654-5.654v-65.34
				c0-3.109-2.544-5.653-5.654-5.653H730.019c-3.11,0-5.654,2.544-5.654,5.653v65.34
				C724.364,3237.132,726.908,3239.677,730.019,3239.677z"/>
			<path fill="#91B3FA" d="M1506.549,3100.236H946.267c-20.657,0-37.404-16.746-37.404-37.404v-731.34
				c0-21.219,17.632-38.188,38.835-37.378l560.282,21.441c20.086,0.769,35.974,17.275,35.974,37.377v709.899
				C1543.953,3083.49,1527.206,3100.236,1506.549,3100.236z"/>
			<g>
				<path opacity="0.51" fill="#FFFFFF" d="M1395.107,2630.332h-371.123c-2.945,0-5.333-2.388-5.333-5.333v-38.656
					c0-2.945,2.388-5.333,5.333-5.333h371.123c2.946,0,5.333,2.388,5.333,5.333v38.656
					C1400.44,2627.944,1398.054,2630.332,1395.107,2630.332z"/>
				<path opacity="0.51" fill="#FFFFFF" d="M1395.858,2709.096h-371.123c-2.946,0-5.333-2.388-5.333-5.333v-38.656
					c0-2.945,2.387-5.333,5.333-5.333h371.123c2.945,0,5.333,2.388,5.333,5.333v38.656
					C1401.191,2706.708,1398.804,2709.096,1395.858,2709.096z"/>
				<path opacity="0.51" fill="#FFFFFF" d="M1398.096,2789.51h-371.124c-2.944,0-5.333-2.388-5.333-5.334v-38.655
					c0-2.945,2.389-5.333,5.333-5.333h371.124c2.945,0,5.332,2.388,5.332,5.333v38.655
					C1403.428,2787.122,1401.041,2789.51,1398.096,2789.51z"/>
				<path opacity="0.51" fill="#FFFFFF" d="M1398.846,2868.273h-371.122c-2.946,0-5.334-2.388-5.334-5.334v-38.655
					c0-2.945,2.388-5.333,5.334-5.333h371.122c2.945,0,5.334,2.388,5.334,5.333v38.655
					C1404.18,2865.886,1401.791,2868.273,1398.846,2868.273z"/>
			</g>
			<g>
				<path opacity="0.51" fill="#FFFFFF" d="M2209.017,2630.274h-538.234c-2.945,0-5.334-2.388-5.334-5.333v-38.656
					c0-2.945,2.389-5.333,5.334-5.333h538.234c2.945,0,5.333,2.388,5.333,5.333v38.656
					C2214.35,2627.887,2211.962,2630.274,2209.017,2630.274z"/>
				<path opacity="0.51" fill="#FFFFFF" d="M2210.713,2709.096h-538.234c-2.945,0-5.333-2.388-5.333-5.333v-38.656
					c0-2.945,2.388-5.333,5.333-5.333h538.234c2.946,0,5.334,2.388,5.334,5.333v38.656
					C2216.047,2706.708,2213.659,2709.096,2210.713,2709.096z"/>
				<path opacity="0.51" fill="#FFFFFF" d="M1987.064,2789.51h-314.586c-2.945,0-5.333-2.388-5.333-5.334v-38.655
					c0-2.945,2.388-5.333,5.333-5.333h314.586c2.945,0,5.334,2.388,5.334,5.333v38.655
					C1992.398,2787.122,1990.01,2789.51,1987.064,2789.51z"/>
				<g opacity="0.51">
					<path fill="#FFFFFF" d="M1956.833,2397.129h-8.36c-4.151,0-7.518-3.365-7.518-7.517v-28.578
						c0-10.229-8.293-18.522-18.522-18.522h-51.808c-10.229,0-18.522,8.293-18.522,18.522v28.578c0,4.151-3.365,7.517-7.517,7.517
						h-8.361c-4.151,0-7.517-3.365-7.517-7.517v-28.578c0-23.151,18.767-41.918,41.917-41.918h51.808
						c23.151,0,41.918,18.767,41.918,41.918v28.578C1964.351,2393.764,1960.985,2397.129,1956.833,2397.129z"/>
					<path fill="#FFFFFF" d="M1967.196,2403.874h-141.335c-8.661,0-15.682,7.021-15.682,15.682v108.47
						c0,8.66,7.021,15.682,15.682,15.682h141.335c8.662,0,15.683-7.021,15.683-15.682v-108.47
						C1982.879,2410.896,1975.858,2403.874,1967.196,2403.874z M1916.751,2508.711c0.879,3.653-1.892,7.167-5.649,7.167h-29.145
						c-3.758,0-6.527-3.514-5.65-7.168l6.802-28.309c-8.028-4.8-13.275-13.77-12.739-23.92
						c0.693-13.147,11.348-23.909,24.486-24.726c15.228-0.946,27.871,11.123,27.871,26.146c0,9.563-5.124,17.926-12.776,22.5
						L1916.751,2508.711z"/>
				</g>
			</g>
		</g>
		<g>
			<g>
				<g>
					<path fill="#91B3FA" d="M2368.249,1130.812c-0.552,0-1.114-0.135-1.631-0.424c-1.627-0.904-2.212-2.952-1.309-4.576
						c2.167-3.899,4.268-7.825,6.307-11.777c0.852-1.65,2.876-2.294,4.536-1.446c1.65,0.852,2.299,2.884,1.447,4.537
						c-2.071,4.011-4.205,7.996-6.404,11.954C2370.58,1130.187,2369.433,1130.812,2368.249,1130.812z"/>
					<path fill="#91B3FA" d="M1974.42,1362.614c-1.99,0-3.976-0.014-5.964-0.04c-1.857-0.026-3.345-1.552-3.321-3.412
						c0.026-1.842,1.529-3.321,3.366-3.321h0.047c8.709,0.119,17.503-0.026,26.196-0.421c1.732-0.118,3.433,1.352,3.514,3.213
						c0.086,1.857-1.354,3.429-3.212,3.514C1988.208,1362.456,1981.268,1362.614,1974.42,1362.614z M1925.696,1359.987
						c-0.122,0-0.244-0.007-0.365-0.021c-8.795-0.953-17.658-2.173-26.344-3.629c-1.836-0.31-3.071-2.045-2.766-3.877
						c0.306-1.834,2.052-3.083,3.877-2.765c8.561,1.437,17.292,2.641,25.955,3.577c1.849,0.2,3.187,1.861,2.986,3.709
						C1928.852,1358.708,1927.393,1359.987,1925.696,1359.987z M2037.599,1358.182c-1.653,0-3.094-1.216-3.33-2.896
						c-0.26-1.841,1.022-3.544,2.864-3.804c8.616-1.213,17.306-2.699,25.828-4.415c1.805-0.365,3.597,0.815,3.965,2.637
						c0.364,1.821-0.815,3.597-2.637,3.965c-8.65,1.742-17.471,3.248-26.217,4.481
						C2037.912,1358.172,2037.753,1358.182,2037.599,1358.182z M1857.638,1347.3c-0.29,0-0.582-0.036-0.871-0.115
						c-8.532-2.278-17.103-4.84-25.48-7.611c-1.766-0.581-2.722-2.488-2.137-4.254c0.581-1.762,2.476-2.716,4.254-2.137
						c8.253,2.729,16.695,5.254,25.099,7.499c1.799,0.479,2.863,2.324,2.384,4.119
						C1860.484,1346.307,1859.123,1347.3,1857.638,1347.3z M2105.221,1343.272c-1.446,0-2.781-0.938-3.222-2.391
						c-0.54-1.778,0.467-3.659,2.245-4.198c8.342-2.528,16.698-5.332,24.845-8.334c1.739-0.642,3.68,0.25,4.323,1.995
						c0.642,1.746-0.249,3.68-1.995,4.323c-8.269,3.048-16.754,5.896-25.22,8.46
						C2105.871,1343.227,2105.543,1343.272,2105.221,1343.272z M1792.317,1324.342c-0.454,0-0.914-0.092-1.354-0.286
						c-8.095-3.567-16.169-7.417-24.003-11.438c-1.654-0.849-2.305-2.88-1.457-4.534c0.852-1.647,2.874-2.305,4.533-1.456
						c7.717,3.961,15.67,7.752,23.642,11.267c1.704,0.75,2.474,2.738,1.724,4.438
						C1794.846,1323.592,1793.613,1324.342,1792.317,1324.342z M2169.738,1318.131c-1.253,0-2.456-0.7-3.038-1.906
						c-0.806-1.674-0.102-3.686,1.575-4.494c7.831-3.771,15.659-7.832,23.267-12.069c1.634-0.901,3.673-0.319,4.58,1.305
						c0.904,1.625,0.318,3.676-1.306,4.58c-7.722,4.301-15.669,8.423-23.622,12.253
						C2170.725,1318.026,2170.229,1318.131,2169.738,1318.131z M1731.337,1291.606c-0.621,0-1.252-0.171-1.814-0.533
						c-7.433-4.767-14.817-9.816-21.948-15.005c-1.503-1.095-1.835-3.199-0.74-4.704c1.099-1.503,3.202-1.832,4.705-0.74
						c7.02,5.112,14.294,10.083,21.62,14.781c1.564,1.003,2.019,3.088,1.015,4.652
						C1733.53,1291.061,1732.445,1291.606,1731.337,1291.606z M2229.607,1283.331c-1.068,0-2.121-0.506-2.775-1.453
						c-1.055-1.532-0.671-3.63,0.858-4.685c7.164-4.941,14.275-10.159,21.137-15.512c1.466-1.141,3.583-0.881,4.728,0.585
						c1.141,1.467,0.881,3.584-0.585,4.728c-6.967,5.429-14.184,10.725-21.452,15.742
						C2230.932,1283.137,2230.265,1283.331,2229.607,1283.331z M1676.144,1249.862c-0.796,0-1.592-0.279-2.232-0.845
						c-6.588-5.833-13.114-11.954-19.391-18.198c-1.318-1.312-1.325-3.441-0.014-4.76c1.313-1.315,3.442-1.325,4.761-0.014
						c6.185,6.148,12.615,12.182,19.108,17.928c1.391,1.233,1.522,3.36,0.289,4.755
						C1677.997,1249.478,1677.074,1249.862,1676.144,1249.862z M2283.466,1239.756c-0.894,0-1.785-0.354-2.449-1.056
						c-1.275-1.354-1.213-3.484,0.139-4.761c6.335-5.977,12.572-12.207,18.532-18.522c1.279-1.348,3.409-1.407,4.761-0.138
						c1.352,1.278,1.414,3.409,0.138,4.761c-6.053,6.407-12.381,12.732-18.809,18.799
						C2285.126,1239.45,2284.295,1239.756,2283.466,1239.756z M1627.933,1200.155c-0.967,0-1.923-0.414-2.591-1.213
						c-5.642-6.772-11.164-13.812-16.419-20.919c-1.104-1.496-0.785-3.604,0.707-4.712c1.506-1.104,3.607-0.782,4.712,0.707
						c5.175,7.006,10.615,13.943,16.175,20.617c1.19,1.427,0.997,3.551-0.434,4.741
						C1629.455,1199.899,1628.692,1200.155,1627.933,1200.155z M2330.063,1188.557c-0.724,0-1.45-0.23-2.064-0.71
						c-1.467-1.141-1.729-3.258-0.589-4.725c5.362-6.888,10.57-13.999,15.482-21.137c1.059-1.532,3.156-1.92,4.682-0.868
						c1.531,1.056,1.92,3.153,0.867,4.682c-4.987,7.25-10.273,14.47-15.718,21.459
						C2332.059,1188.109,2331.065,1188.557,2330.063,1188.557z M1587.819,1143.716c-1.144,0-2.259-0.582-2.89-1.634
						c-4.563-7.598-8.942-15.403-13.017-23.198c-0.857-1.647-0.223-3.682,1.428-4.544c1.644-0.857,3.683-0.223,4.544,1.428
						c4.01,7.677,8.324,15.363,12.818,22.85c0.957,1.594,0.44,3.662-1.154,4.619
						C1589.006,1143.562,1588.408,1143.716,1587.819,1143.716z M1556.869,1081.775c-1.328,0-2.587-0.792-3.12-2.101
						c-3.329-8.203-6.449-16.59-9.274-24.927c-0.595-1.76,0.349-3.673,2.11-4.268c1.746-0.596,3.669,0.349,4.269,2.11
						c2.78,8.209,5.851,16.468,9.136,24.553c0.7,1.723-0.131,3.686-1.854,4.386
						C1557.722,1081.697,1557.293,1081.775,1556.869,1081.775z"/>
					<path fill="#91B3FA" d="M1535.805,1015.624c-1.528,0-2.909-1.046-3.274-2.598c-1.032-4.405-2.003-8.82-2.903-13.246
						c-0.371-1.821,0.806-3.6,2.627-3.968c1.818-0.368,3.601,0.799,3.968,2.627c0.889,4.359,1.846,8.709,2.864,13.049
						c0.424,1.812-0.699,3.623-2.509,4.047C1536.318,1015.595,1536.062,1015.624,1535.805,1015.624z"/>
				</g>
				<g>
					<path fill="#91B3FA" d="M1592.886,672.307c-0.615,0-1.233-0.168-1.792-0.52c-1.57-0.989-2.044-3.07-1.052-4.643
						c2.403-3.813,4.869-7.604,7.394-11.362c1.036-1.541,3.131-1.959,4.672-0.917c1.546,1.039,1.954,3.13,0.918,4.672
						c-2.492,3.705-4.918,7.437-7.289,11.198C1595.099,671.751,1594.004,672.307,1592.886,672.307z"/>
					<path fill="#91B3FA" d="M2406.551,785.088c-1.456,0-2.801-0.95-3.231-2.42c-2.571-8.774-5.455-17.583-8.564-26.184
						c-0.632-1.745,0.272-3.675,2.021-4.31c1.743-0.638,3.679,0.272,4.311,2.021c3.159,8.726,6.082,17.668,8.695,26.578
						c0.523,1.785-0.499,3.656-2.284,4.179C2407.183,785.045,2406.863,785.088,2406.551,785.088z M2380.463,717.135
						c-1.256,0-2.459-0.704-3.038-1.907c-3.972-8.259-8.242-16.484-12.7-24.447c-0.907-1.621-0.328-3.673,1.296-4.583
						c1.624-0.901,3.675-0.325,4.583,1.295c4.521,8.081,8.86,16.433,12.891,24.815c0.806,1.677,0.099,3.689-1.575,4.495
						C2381.449,717.029,2380.953,717.135,2380.463,717.135z M2343.696,654.307c-1.062,0-2.107-0.5-2.761-1.437
						c-5.238-7.479-10.784-14.906-16.485-22.07c-1.157-1.457-0.917-3.574,0.536-4.731c1.46-1.164,3.574-0.917,4.731,0.536
						c5.786,7.275,11.418,14.811,16.734,22.405c1.065,1.522,0.696,3.62-0.829,4.688
						C2345.038,654.109,2344.364,654.307,2343.696,654.307z M1627.242,624.925c-0.756,0-1.52-0.254-2.146-0.776
						c-1.431-1.187-1.628-3.311-0.44-4.741c5.907-7.114,12.135-14.166,18.506-20.955c1.272-1.358,3.4-1.424,4.761-0.151
						c1.354,1.275,1.424,3.406,0.151,4.761c-6.283,6.69-12.418,13.637-18.236,20.646
						C1629.169,624.51,1628.213,624.925,1627.242,624.925z M2297.301,598.212c-0.878,0-1.756-0.342-2.416-1.022
						c-6.343-6.539-12.993-12.986-19.77-19.164c-1.374-1.253-1.473-3.383-0.22-4.757c1.252-1.381,3.386-1.477,4.757-0.221
						c6.878,6.272,13.628,12.815,20.064,19.453c1.296,1.335,1.263,3.466-0.072,4.761
						C2298.99,597.896,2298.146,598.212,2297.301,598.212z M1678.073,572.821c-0.937,0-1.87-0.392-2.535-1.151
						c-1.223-1.4-1.081-3.527,0.319-4.75c7.006-6.118,14.278-12.093,21.617-17.757c1.482-1.131,3.589-0.858,4.724,0.608
						c1.135,1.473,0.861,3.586-0.608,4.724c-7.232,5.579-14.399,11.465-21.301,17.494
						C1679.651,572.548,1678.859,572.821,1678.073,572.821z M2242.594,550.241c-0.697,0-1.4-0.217-2.005-0.664
						c-7.339-5.454-14.94-10.744-22.597-15.729c-1.559-1.013-1.999-3.101-0.983-4.658c1.013-1.556,3.09-1.999,4.658-0.983
						c7.77,5.06,15.488,10.429,22.938,15.965c1.493,1.108,1.802,3.219,0.693,4.712
						C2244.639,549.771,2243.623,550.241,2242.594,550.241z M1736.574,529.466c-1.124,0-2.223-0.562-2.86-1.588
						c-0.983-1.578-0.5-3.652,1.079-4.635c7.874-4.902,16.014-9.63,24.19-14.046c1.644-0.891,3.682-0.27,4.564,1.361
						c0.883,1.638,0.271,3.679-1.362,4.563c-8.058,4.35-16.077,9.005-23.835,13.835
						C1737.797,529.302,1737.184,529.466,1736.574,529.466z M2180.851,511.739c-0.52,0-1.045-0.118-1.538-0.375
						c-8.118-4.186-16.479-8.173-24.853-11.855c-1.703-0.746-2.476-2.732-1.726-4.436c0.743-1.702,2.729-2.481,4.435-1.726
						c8.499,3.734,16.988,7.782,25.227,12.033c1.654,0.852,2.302,2.883,1.45,4.533
						C2183.247,511.075,2182.07,511.739,2180.851,511.739z M1801.299,496.132c-1.318,0-2.57-0.778-3.109-2.074
						c-0.713-1.716,0.102-3.686,1.817-4.402c8.552-3.554,17.35-6.897,26.147-9.929c1.766-0.602,3.676,0.325,4.28,2.085
						c0.605,1.759-0.328,3.675-2.084,4.28c-8.666,2.988-17.332,6.279-25.759,9.784
						C1802.171,496.05,1801.73,496.132,1801.299,496.132z M2113.683,483.744c-0.342,0-0.693-0.053-1.038-0.164
						c-8.689-2.817-17.589-5.402-26.446-7.684c-1.802-0.464-2.887-2.302-2.424-4.1c0.464-1.802,2.328-2.884,4.101-2.423
						c8.991,2.317,18.026,4.941,26.848,7.802c1.769,0.572,2.734,2.472,2.163,4.241
						C2116.426,482.84,2115.104,483.744,2113.683,483.744z M1870.562,473.743c-1.525,0-2.91-1.046-3.274-2.594
						c-0.425-1.809,0.696-3.623,2.505-4.051c9.054-2.134,18.276-4.008,27.406-5.569c1.873-0.296,3.574,0.917,3.887,2.749
						c0.315,1.834-0.918,3.573-2.749,3.886c-8.995,1.538-18.079,3.386-26.999,5.49
						C1871.077,473.714,1870.817,473.743,1870.562,473.743z M2042.872,466.951c-0.168,0-0.341-0.014-0.513-0.04
						c-9.041-1.388-18.239-2.509-27.347-3.337c-1.852-0.168-3.216-1.809-3.048-3.659c0.171-1.851,1.769-3.222,3.659-3.048
						c9.242,0.842,18.582,1.982,27.756,3.39c1.837,0.283,3.099,1.999,2.816,3.837
						C2045.943,465.761,2044.506,466.951,2042.872,466.951z M1942.532,462.821c-1.753,0-3.231-1.357-3.354-3.13
						c-0.132-1.857,1.266-3.465,3.12-3.594c9.245-0.65,18.645-1.019,27.938-1.098h0.029c1.849,0,3.351,1.489,3.367,3.337
						c0.017,1.861-1.479,3.38-3.337,3.396c-9.159,0.079-18.421,0.44-27.525,1.078
						C1942.69,462.818,1942.611,462.821,1942.532,462.821z"/>
					<path fill="#91B3FA" d="M2419.35,842.405c-1.631,0-3.063-1.187-3.323-2.847c-0.685-4.396-1.434-8.785-2.256-13.168
						c-0.339-1.827,0.864-3.587,2.692-3.929c1.818-0.315,3.587,0.868,3.93,2.693c0.828,4.448,1.591,8.902,2.288,13.364
						c0.285,1.838-0.971,3.561-2.809,3.847C2419.695,842.393,2419.521,842.405,2419.35,842.405z"/>
				</g>
				<g>
					<path fill="#91B3FA" d="M2320.188,898.736c0.179-2.299-1.12-4.46-3.235-5.379l-60.353-26.217
						c-4.662-30.374-14.201-60.223-28.735-88.308l33.304-56.7c1.169-1.989,0.946-4.5-0.553-6.253l-51.305-59.977
						c-1.5-1.753-3.947-2.36-6.091-1.516l-61.175,24.121c-25.496-18.708-53.506-32.757-82.792-42.067l-16.554-63.685
						c-0.58-2.231-2.513-3.85-4.812-4.029l-78.688-6.131c-2.302-0.18-4.461,1.12-5.38,3.235l-26.218,60.353
						c-30.373,4.661-60.221,14.202-88.307,28.735l-56.701-33.305c-1.988-1.169-4.499-0.947-6.252,0.553l-59.978,51.307
						c-1.753,1.499-2.36,3.945-1.515,6.091l24.121,61.175c-18.71,25.496-32.758,53.505-42.066,82.79l-63.687,16.554
						c-2.23,0.58-3.85,2.514-4.028,4.812l-6.132,78.688c-0.179,2.301,1.121,4.461,3.236,5.38l60.353,26.217
						c4.661,30.373,14.2,60.222,28.734,88.308l-33.306,56.701c-1.167,1.988-0.944,4.499,0.553,6.251l51.308,59.979
						c1.498,1.753,3.945,2.36,6.091,1.514l61.175-24.121c25.495,18.71,53.507,32.758,82.792,42.067l16.553,63.685
						c0.578,2.232,2.513,3.851,4.813,4.03l78.688,6.131c2.299,0.179,4.46-1.12,5.379-3.236l26.218-60.351
						c30.374-4.662,60.223-14.202,88.308-28.737l56.701,33.307c1.987,1.168,4.499,0.945,6.251-0.554l59.977-51.307
						c1.753-1.499,2.361-3.944,1.517-6.091l-24.121-61.174c18.709-25.496,32.754-53.507,42.066-82.791l63.685-16.554
						c2.232-0.58,3.851-2.513,4.03-4.813L2320.188,898.736z"/>
					<path opacity="0.7" fill="#FFFFFF" d="M1971.465,986.311c-15.411,0.004-30.412-4.74-43.243-13.821
						c-33.818-23.931-41.859-70.912-17.929-104.729c11.593-16.382,28.872-27.268,48.654-30.654
						c19.782-3.376,39.695,1.138,56.075,12.727c16.382,11.596,27.271,28.873,30.654,48.651c3.386,19.782-1.134,39.699-12.727,56.078
						c-11.592,16.383-28.869,27.269-48.651,30.654C1980.015,985.949,1975.722,986.311,1971.465,986.311z M1971.76,846.11
						c-3.686,0-7.4,0.315-11.108,0.95c-17.123,2.93-32.079,12.353-42.113,26.532c-20.715,29.27-13.755,69.938,15.516,90.651
						c14.18,10.037,31.411,13.939,48.542,11.017c17.122-2.929,32.075-12.352,42.108-26.531c10.038-14.18,13.95-31.417,11.021-48.54
						c-2.933-17.122-12.355-32.078-26.535-42.111l0,0C1998.081,850.217,1985.099,846.11,1971.76,846.11z"/>
					<path opacity="0.7" fill="#FFFFFF" d="M1970.258,1106.68c-5.146,0-10.314-0.2-15.499-0.604
						c-52.063-4.054-99.43-28.143-133.372-67.825c-30.565-35.728-46.954-80.246-46.954-126.764c0-5.148,0.2-10.316,0.604-15.505
						c4.057-52.061,28.143-99.426,67.828-133.372c39.676-33.941,90.202-50.403,142.267-46.347
						c52.063,4.055,99.429,28.144,133.371,67.825c9.064,10.594,16.994,22.137,23.566,34.304l-8.884,4.801
						c-6.233-11.54-13.756-22.488-22.356-32.539c-32.189-37.634-77.109-60.477-126.48-64.323
						c-49.371-3.813-97.286,11.767-134.921,43.953c-37.631,32.193-60.474,77.113-64.324,126.484
						c-0.38,4.918-0.571,9.82-0.571,14.702c0,44.114,15.544,86.335,44.528,120.218c32.189,37.631,77.109,60.474,126.48,64.32
						c49.407,3.851,97.293-11.763,134.921-43.953c25.542-21.85,44.65-50.153,55.26-81.85l9.581,3.208
						c-11.192,33.43-31.346,63.278-58.278,86.315C2061.298,1090.291,2016.775,1106.68,1970.258,1106.68z"/>
				</g>
			</g>
			<g>
				<g>
					<path fill="#91B3FA" d="M2747.984,1241.324c-0.582,0-1.174-0.151-1.713-0.47c-1.602-0.947-2.127-3.012-1.181-4.613
						c2.263-3.82,4.426-7.723,6.428-11.602c0.852-1.651,2.877-2.295,4.537-1.447c1.65,0.852,2.298,2.884,1.446,4.537
						c-2.062,3.994-4.286,8.013-6.618,11.944C2750.256,1240.735,2749.136,1241.324,2747.984,1241.324z"/>
					<path fill="#91B3FA" d="M2530.701,1354c-0.089,0-0.178-0.003-0.267-0.01c-9.13-0.72-18.306-1.982-27.265-3.751
						c-1.825-0.362-3.012-2.134-2.653-3.955c0.364-1.825,2.14-3.016,3.955-2.653c8.709,1.723,17.618,2.949,26.488,3.646
						c1.854,0.148,3.239,1.77,3.094,3.62C2533.916,1352.662,2532.439,1354,2530.701,1354z M2574.732,1353.286
						c-1.692,0-3.149-1.271-3.343-2.991c-0.207-1.848,1.124-3.515,2.972-3.722c8.86-0.993,17.728-2.512,26.354-4.518
						c1.795-0.44,3.619,0.7,4.041,2.516c0.42,1.812-0.704,3.619-2.516,4.04c-8.884,2.068-18.011,3.633-27.131,4.655
						C2574.982,1353.279,2574.857,1353.286,2574.732,1353.286z M2461.616,1337.693c-0.424,0-0.852-0.079-1.269-0.247
						c-8.463-3.438-16.82-7.424-24.842-11.842c-1.628-0.897-2.223-2.946-1.325-4.573c0.897-1.628,2.939-2.216,4.573-1.325
						c7.792,4.29,15.912,8.16,24.132,11.5c1.719,0.7,2.551,2.667,1.851,4.39C2464.204,1336.9,2462.944,1337.693,2461.616,1337.693z
						 M2643.235,1334.672c-1.289,0-2.519-0.743-3.077-1.992c-0.76-1.7,0.003-3.689,1.699-4.448
						c8.117-3.627,16.104-7.775,23.73-12.329c1.588-0.957,3.659-0.434,4.616,1.164c0.953,1.598,0.435,3.662-1.164,4.615
						c-7.854,4.691-16.076,8.963-24.434,12.697C2644.159,1334.58,2643.692,1334.672,2643.235,1334.672z M2400.791,1301.16
						c-0.76,0-1.525-0.257-2.153-0.782c-7-5.843-13.749-12.181-20.059-18.835c-1.279-1.352-1.223-3.482,0.125-4.761
						c1.352-1.275,3.485-1.224,4.761,0.125c6.132,6.47,12.687,12.624,19.486,18.303c1.427,1.189,1.62,3.313,0.427,4.74
						C2402.714,1300.749,2401.757,1301.16,2400.791,1301.16z M2702.812,1296.084c-0.924,0-1.848-0.381-2.512-1.124
						c-1.239-1.388-1.118-3.519,0.27-4.754l1.979-1.786c5.921-5.401,11.615-11.164,16.925-17.132
						c1.232-1.397,3.36-1.522,4.751-0.279c1.391,1.236,1.516,3.363,0.279,4.751c-5.461,6.145-11.323,12.079-17.419,17.639
						l-2.031,1.831C2704.409,1295.802,2703.61,1296.084,2702.812,1296.084z M2353.855,1247.923c-1.107,0-2.196-0.546-2.837-1.552
						c-4.935-7.7-9.462-15.778-13.46-24.017c-0.813-1.674-0.115-3.686,1.559-4.498c1.68-0.809,3.686-0.111,4.497,1.559
						c3.883,7.999,8.282,15.847,13.072,23.326c1.003,1.564,0.549,3.646-1.02,4.648
						C2355.105,1247.752,2354.478,1247.923,2353.855,1247.923z"/>
					<path fill="#91B3FA" d="M2325.22,1182.826c-1.489,0-2.851-0.996-3.251-2.505c-1.161-4.376-2.206-8.851-3.11-13.292
						c-0.372-1.822,0.802-3.597,2.627-3.969c1.821-0.371,3.603,0.803,3.968,2.627c0.881,4.313,1.897,8.656,3.024,12.911
						c0.478,1.795-0.595,3.64-2.393,4.116C2325.795,1182.79,2325.506,1182.826,2325.22,1182.826z"/>
				</g>
				<g>
					<path fill="#91B3FA" d="M2352.951,1000.123c-0.614,0-1.232-0.168-1.791-0.52c-1.572-0.99-2.045-3.067-1.053-4.643
						c2.417-3.84,4.981-7.654,7.615-11.339c1.081-1.51,3.185-1.861,4.694-0.783c1.516,1.082,1.864,3.183,0.782,4.695
						c-2.558,3.58-5.047,7.285-7.396,11.017C2355.164,999.567,2354.069,1000.123,2352.951,1000.123z"/>
					<path fill="#91B3FA" d="M2761.907,1032.864c-1.308,0-2.554-0.769-3.1-2.051c-3.413-8.042-7.338-15.972-11.672-23.569
						c-0.92-1.614-0.354-3.673,1.26-4.594c1.614-0.92,3.669-0.354,4.593,1.26c4.458,7.824,8.502,15.991,12.021,24.272
						c0.726,1.71-0.073,3.689-1.786,4.416C2762.795,1032.779,2762.349,1032.864,2761.907,1032.864z M2725.174,973.469
						c-0.949,0-1.896-0.4-2.563-1.183c-1.717-2.02-3.476-4.015-5.277-5.99c-4.109-4.501-8.442-8.891-12.888-13.046
						c-1.357-1.272-1.427-3.402-0.157-4.761c1.271-1.361,3.399-1.43,4.76-0.158c4.57,4.277,9.031,8.795,13.257,13.428
						c1.854,2.028,3.665,4.083,5.434,6.161c1.204,1.417,1.033,3.541-0.381,4.747
						C2726.723,973.206,2725.947,973.469,2725.174,973.469z M2388.854,956.202c-0.888,0-1.775-0.349-2.436-1.042
						c-1.283-1.348-1.233-3.479,0.11-4.761c1.365-1.299,2.742-2.587,4.137-3.863c5.261-4.8,10.796-9.412,16.458-13.709
						c1.479-1.128,3.591-0.842,4.714,0.645c1.128,1.479,0.839,3.59-0.644,4.714c-5.497,4.179-10.879,8.66-15.988,13.322
						c-1.358,1.242-2.702,2.498-4.027,3.764C2390.523,955.894,2389.688,956.202,2388.854,956.202z M2672.467,927.652
						c-0.615,0-1.237-0.168-1.796-0.52c-7.391-4.672-15.127-8.956-22.997-12.736c-1.677-0.806-2.384-2.814-1.578-4.491
						c0.802-1.677,2.804-2.394,4.49-1.578c8.104,3.893,16.074,8.305,23.682,13.111c1.571,0.996,2.042,3.073,1.049,4.646
						C2674.676,927.097,2673.584,927.652,2672.467,927.652z M2445.977,916.023c-1.239,0-2.43-0.684-3.018-1.867
						c-0.829-1.667-0.148-3.686,1.516-4.515c8.045-3.997,16.425-7.571,24.914-10.629c1.759-0.624,3.676,0.279,4.307,2.028
						s-0.276,3.68-2.025,4.308c-8.245,2.969-16.389,6.44-24.197,10.323C2446.989,915.911,2446.479,916.023,2445.977,916.023z
						 M2608.491,899.727c-0.286,0-0.579-0.036-0.868-0.112c-8.443-2.242-17.112-4.018-25.766-5.276
						c-1.842-0.267-3.117-1.976-2.848-3.813c0.267-1.845,1.963-3.163,3.814-2.848c8.909,1.296,17.832,3.12,26.528,5.428
						c1.795,0.478,2.867,2.321,2.39,4.12C2611.341,898.73,2609.98,899.727,2608.491,899.727z M2512.5,894.802
						c-1.627,0-3.061-1.184-3.32-2.841c-0.293-1.838,0.96-3.561,2.798-3.85c8.866-1.404,17.934-2.309,26.945-2.689
						c1.861-0.04,3.43,1.36,3.505,3.222c0.079,1.857-1.364,3.426-3.222,3.505c-8.755,0.368-17.563,1.249-26.177,2.61
						C2512.852,894.788,2512.674,894.802,2512.5,894.802z"/>
					<path fill="#91B3FA" d="M2777.491,1087.496c-1.631,0-3.064-1.187-3.323-2.847c-0.678-4.35-1.493-8.735-2.42-13.039
						c-0.392-1.818,0.763-3.61,2.58-4.001c1.849-0.392,3.61,0.766,4.002,2.58c0.953,4.429,1.791,8.946,2.492,13.421
						c0.285,1.838-0.971,3.561-2.809,3.847C2777.837,1087.483,2777.662,1087.496,2777.491,1087.496z"/>
				</g>
				<g>
					<path fill="#91B3FA" d="M2726.556,1114.796c0.092-1.181-0.575-2.29-1.661-2.763l-31.003-13.467
						c-2.395-15.603-7.295-30.936-14.761-45.362l17.107-29.126c0.601-1.021,0.486-2.311-0.283-3.212l-26.354-30.809
						c-0.771-0.9-2.028-1.213-3.129-0.778l-31.425,12.391c-13.098-9.61-27.484-16.827-42.527-21.609l-8.504-32.714
						c-0.298-1.146-1.29-1.978-2.472-2.069l-40.421-3.149c-1.182-0.092-2.291,0.575-2.763,1.662l-13.467,31.001
						c-15.604,2.396-30.936,7.296-45.362,14.762l-29.127-17.108c-1.021-0.601-2.311-0.486-3.211,0.284l-30.81,26.355
						c-0.9,0.77-1.212,2.026-0.778,3.129l12.391,31.424c-9.61,13.097-16.826,27.484-21.608,42.528l-32.715,8.503
						c-1.146,0.298-1.977,1.291-2.069,2.472l-3.149,40.421c-0.092,1.182,0.575,2.291,1.663,2.763l31.001,13.467
						c2.395,15.603,7.295,30.936,14.761,45.363l-17.108,29.126c-0.6,1.021-0.485,2.311,0.284,3.211l26.355,30.81
						c0.77,0.9,2.026,1.212,3.129,0.778l31.424-12.391c13.097,9.61,27.485,16.827,42.528,21.608l8.503,32.714
						c0.298,1.146,1.291,1.978,2.472,2.07l40.422,3.149c1.181,0.092,2.29-0.576,2.763-1.662l13.467-31.002
						c15.603-2.395,30.936-7.295,45.362-14.762l29.126,17.109c1.021,0.6,2.312,0.485,3.211-0.284l30.809-26.354
						c0.901-0.771,1.213-2.027,0.779-3.13l-12.391-31.424c9.61-13.097,16.826-27.485,21.609-42.528l32.713-8.503
						c1.146-0.298,1.978-1.291,2.07-2.473L2726.556,1114.796z"/>
					<path opacity="0.7" fill="#FFFFFF" d="M2547.419,1162.238c-8.42,0-16.616-2.59-23.626-7.552
						c-18.477-13.075-22.868-38.745-9.797-57.222c6.335-8.953,15.777-14.9,26.584-16.748c10.81-1.851,21.692,0.622,30.638,6.954
						c8.953,6.335,14.9,15.774,16.748,26.581c1.851,10.81-0.618,21.691-6.954,30.641c-6.335,8.953-15.773,14.9-26.58,16.748
						C2552.091,1162.041,2549.746,1162.238,2547.419,1162.238z M2547.547,1090.238c-9.711,0-19.279,4.547-25.306,13.059
						c-9.856,13.934-6.546,33.288,7.385,43.145c6.749,4.777,14.972,6.641,23.099,5.244c8.15-1.395,15.269-5.879,20.042-12.625
						c4.777-6.75,6.638-14.956,5.244-23.103c-1.395-8.15-5.879-15.269-12.625-20.042l0,0
						C2559.968,1092.079,2553.728,1090.238,2547.547,1090.238z"/>
					<path opacity="0.7" fill="#FFFFFF" d="M2546.811,1224.07c-2.709,0-5.432-0.105-8.16-0.318
						c-27.396-2.134-52.323-14.812-70.186-35.695c-16.557-19.351-24.658-43.134-24.654-66.806c0-29.047,12.203-57.929,35.957-78.247
						c43.105-36.881,108.179-31.809,145.053,11.303c0.29,0.336,0.576,0.678,0.861,1.017c3.998,4.8,7.556,9.948,10.604,15.344
						c0.013,0.022,0.026,0.042,0.036,0.063c0.046,0.082,0.092,0.161,0.135,0.239c0.079,0.142,0.157,0.283,0.236,0.421
						c0.043,0.079,0.086,0.158,0.128,0.233c0.136,0.243,0.267,0.49,0.398,0.733l-8.884,4.8c-3.12-5.773-6.884-11.25-11.188-16.287
						l0,0c-23.55-27.524-59.843-37.845-92.821-29.733c-13.602,3.347-26.644,9.833-37.996,19.542
						c-21.42,18.325-32.424,44.37-32.427,70.566c0,21.348,7.306,42.796,22.234,60.251c33.256,38.87,91.94,43.45,130.817,10.191
						c12.779-10.932,22.34-25.095,27.649-40.958l9.581,3.209c-5.892,17.596-16.495,33.301-30.668,45.423
						C2594.719,1215.443,2571.287,1224.07,2546.811,1224.07z"/>
				</g>
			</g>
		</g>
		<g>
			<g>
				<linearGradient id="SVGID_5_" gradientUnits="userSpaceOnUse" x1="3668.749" y1="742.1309" x2="3204.1812" y2="1196.5992">
					<stop  offset="0" style="stop-color:#FF928E"/>
					<stop  offset="1" style="stop-color:#FE7062"/>
				</linearGradient>
				<path fill="url(#SVGID_5_)" d="M1891.236,1585.263c8.301-7.773,19.523-11.638,30.852-10.619
					c121.174,10.897,347.254-47.471,495.011-198.653c10.26-10.498,28.961-4.564,40.722,4.224
					c164.326,122.816,436.716,148.25,531.275,153.45c19.559,1.076,35.429,16.249,37.449,35.735
					c85.993,830.543-454.768,1131.503-566.923,1184.627c-12.26,5.808-26.692,4.964-38.21-2.208
					c-558.973-348.175-535.063-800.968-542.793-1136.465C1878.356,1603.984,1882.936,1593.037,1891.236,1585.263z"/>
				<path opacity="0.61" fill="#FFFFFF" d="M2444.497,2693.699c-2.498,0-4.995-0.701-7.168-2.088
					c-214.297-136.99-353.967-300.763-426.993-500.676c-65.221-178.547-68.411-360.356-71.23-520.763l-0.383-21.387
					c-0.066-3.568,1.275-6.935,3.773-9.479c2.518-2.563,5.897-3.977,9.511-3.977h0.005c132.713,0,331.908-58.601,478.008-189.515
					c4.485-4.02,11.124-4.503,16.156-1.166c160.528,106.515,389.512,137.529,511.719,146.536c6.502,0.48,11.634,5.55,12.206,12.056
					c28.406,324.065-38.999,598.099-200.341,814.49c-120.502,161.608-263.391,245.813-319.232,274.518l0,0
					C2448.639,2693.219,2446.566,2693.699,2444.497,2693.699z M2448.041,2687.408l1.243,2.42L2448.041,2687.408
					c55.505-28.528,197.537-112.232,317.356-272.929c160.519-215.289,227.567-488.068,199.283-810.763
					c-0.338-3.834-3.358-6.822-7.185-7.106c-122.739-9.047-352.769-40.226-514.328-147.429c-2.962-1.966-6.875-1.685-9.519,0.688
					c-147.168,131.873-347.889,190.9-481.525,190.9h-0.004c-2.255,0-4.255,0.834-5.743,2.352c-1.467,1.49-2.253,3.467-2.213,5.563
					l0.382,21.387c2.809,159.983,5.994,341.307,70.901,518.998c72.602,198.749,211.558,361.632,424.814,497.955
					C2442.598,2688.519,2445.58,2688.67,2448.041,2687.408z"/>
			</g>
			<g>
				<path opacity="0.61" fill="#FFFFFF" d="M2639.888,1898.781h-25.277c-12.552,0-22.726-10.175-22.726-22.727v-86.398
					c0-30.927-25.072-55.997-55.998-55.997h-156.626c-30.927,0-55.997,25.07-55.997,55.997v86.398
					c0,12.552-10.174,22.727-22.727,22.727h-25.277c-12.551,0-22.727-10.175-22.727-22.727v-86.398
					c0-69.989,56.738-126.727,126.728-126.727h156.626c69.99,0,126.728,56.737,126.728,126.727v86.398
					C2662.614,1888.606,2652.439,1898.781,2639.888,1898.781z"/>
				<path opacity="0.61" fill="#FFFFFF" d="M2671.219,1919.172h-427.29c-26.184,0-47.41,21.227-47.41,47.409v327.928
					c0,26.185,21.227,47.412,47.41,47.412h427.29c26.184,0,47.41-21.228,47.41-47.412v-327.928
					C2718.629,1940.398,2697.402,1919.172,2671.219,1919.172z M2518.709,2236.117c2.653,11.046-5.719,21.668-17.079,21.668h-88.112
					c-11.361,0-19.732-10.622-17.079-21.67l20.561-85.584c-24.271-14.509-40.135-41.627-38.515-72.316
					c2.099-39.745,34.307-72.282,74.031-74.75c46.034-2.859,84.261,33.628,84.261,79.045c0,28.91-15.495,54.192-38.628,68.021
					L2518.709,2236.117z"/>
			</g>
		</g>
		<g>
			
				<linearGradient id="SVGID_6_" gradientUnits="userSpaceOnUse" x1="1693.7314" y1="1879.6465" x2="1819.1907" y2="2010.6818" gradientTransform="matrix(-1 0 0 1 2478.457 0)">
				<stop  offset="0" style="stop-color:#09005D"/>
				<stop  offset="1" style="stop-color:#1A0F91"/>
			</linearGradient>
			<path fill="url(#SVGID_6_)" d="M819.695,1811.973c0,0,34.607,1.831,38.851,73.029c0,0-80.248,71.938-188.646,89.061
				c-8.138,1.285,11.377-55.553,14.311-63.251C698.169,1874.178,742.13,1850.585,819.695,1811.973z"/>
			<path fill="#7D97F4" d="M1209.443,1728.256h-73.029c0,0-224.147-247.55-371.159-272.524c0,0-102.334,130.629,5.45,374.705
				c8.672,19.634,32.922,28.356,51.012,16.804c5.408-3.455,9.295-8.087,11.654-13.893l-8.667-208.401
				c0,0,191.197,167.224,224.431,199.494C1082.368,1856.712,1251.298,1837.042,1209.443,1728.256z"/>
			
				<linearGradient id="SVGID_7_" gradientUnits="userSpaceOnUse" x1="1860.1582" y1="2208.542" x2="2097.467" y2="2382.7136" gradientTransform="matrix(-1 0 0 1 2478.457 0)">
				<stop  offset="0" style="stop-color:#09005D"/>
				<stop  offset="1" style="stop-color:#1A0F91"/>
			</linearGradient>
			<path fill="url(#SVGID_7_)" d="M503.403,2247.998c30.603-26.815,79.364-56.907,149.757-65.535l23.806,14.562
				c0,0-15.181,22.392-42.912,46.043c-25.487,14.805-64.845,34.854-97.473,39.2C504.858,2286.493,500.179,2267.324,503.403,2247.998
				z"/>
			<path fill="#91B3FA" d="M684.21,1910.812c18.853,6.103,27.146,32.813,74.985,15.149c46.284-17.089,80.691-39.127,98.395-51.837
				c0.395,3.444,0.728,7.042,0.956,10.878c0,0-84.612,80.481-193.012,97.604c-8.139,1.285-14.587-6.838-11.652-14.537
				C659.144,1954.254,668.635,1933.302,684.21,1910.812z"/>
			<path fill="#91B3FA" d="M480.349,2270.897c6.033-6.856,13.732-14.731,23.055-22.899c-3.225,19.326,1.455,38.495,33.178,34.27
				c32.628-4.346,71.985-24.396,97.473-39.2c-31.945,27.245-80.55,56.162-141.897,54.464
				C478.53,2297.154,471.345,2281.132,480.349,2270.897z"/>
			<path fill="#7D97F4" d="M1206.771,1781.097l-341.99,3.702c0,0-195.302,161.584-230.727,407.975c0,0-5.879,18.122,29.423,21.223
				c0,0,118.077-77.12,195.069-213.468c94.404-167.181,281.431-91.926,281.431-91.926c89.852,19.83,161.367,12.452,213.702-68.086
				L1206.771,1781.097z"/>
			
				<linearGradient id="SVGID_8_" gradientUnits="userSpaceOnUse" x1="1476.7598" y1="1564.8408" x2="1315.6508" y2="1756.4298" gradientTransform="matrix(-1 0 0 1 2478.457 0)">
				<stop  offset="0" style="stop-color:#FEBBBA"/>
				<stop  offset="1" style="stop-color:#FF928E"/>
			</linearGradient>
			<path fill="url(#SVGID_8_)" d="M1198.695,1505.605c0,0-36.816,184.506-217.204,257.497l-64.166-7.562l-15.141,24.142
				l150.513,4.796c0,0,128.657-50.958,196.823-189.813C1251.772,1590.078,1289.31,1512.573,1198.695,1505.605z"/>
			<linearGradient id="SVGID_9_" gradientUnits="userSpaceOnUse" x1="1800.5352" y1="1093.2793" x2="1315.7438" y2="1598.2695">
				<stop  offset="0" style="stop-color:#FF928E"/>
				<stop  offset="1" style="stop-color:#FE7062"/>
			</linearGradient>
			<path fill="url(#SVGID_9_)" d="M1178.966,1778.08c0,0,41.866-113.803,50.864-224.382c0,0-30.629-26.322-49.772-37.68
				c-6.199-3.677-8.539-11.456-5.406-17.947c14.075-29.157,99.191-143.645,105.567-145.235
				c34.655-8.649,176.785-76.228,276.885,60.695c42.961,58.763-8.523,239.652-203.425,426.984
				C1290.965,1850.726,1232.331,1832.656,1178.966,1778.08z"/>
			
				<linearGradient id="SVGID_10_" gradientUnits="userSpaceOnUse" x1="1288.8994" y1="1739.1641" x2="1610.9299" y2="1298.6089" gradientTransform="matrix(-1 0 0 1 2478.457 0)">
				<stop  offset="0" style="stop-color:#FEBBBA"/>
				<stop  offset="1" style="stop-color:#FF928E"/>
			</linearGradient>
			<path fill="url(#SVGID_10_)" d="M1340.288,1578.635c0,0-116.317,137.726-265.029,157.859c0,0-38.433-35.039-67.012-22.529
				s-67.766,67.728-67.766,67.728h190.946c0,0,180.547-6.361,270.766-115.845
				C1394.934,1627.537,1373.193,1604.653,1340.288,1578.635z"/>
			
				<linearGradient id="SVGID_11_" gradientUnits="userSpaceOnUse" x1="1091.9043" y1="1374.0762" x2="1103.7661" y2="1267.3199" gradientTransform="matrix(-1 0 0 1 2478.457 0)">
				<stop  offset="0" style="stop-color:#FEBBBA"/>
				<stop  offset="1" style="stop-color:#FF928E"/>
			</linearGradient>
			<path fill="url(#SVGID_11_)" d="M1408.144,1256.236l25.45,84.883c1.167,3.89-0.273,8.101-3.624,10.396
				c-12.252,8.392-44.277,25.081-88.21,8.862c-5.024-1.854-8.467-6.548-8.902-11.886l-6.033-73.947L1408.144,1256.236z"/>
			<g>
				
					<linearGradient id="SVGID_12_" gradientUnits="userSpaceOnUse" x1="1155.1719" y1="1280.9531" x2="1102.8888" y2="1108.5112" gradientTransform="matrix(-1 0 0 1 2478.457 0)">
					<stop  offset="0" style="stop-color:#FEBBBA"/>
					<stop  offset="1" style="stop-color:#FF928E"/>
				</linearGradient>
				<path fill="url(#SVGID_12_)" d="M1259.116,1187.493c0,0,12.514,87.991,46.314,115.05c33.801,27.06,99.655,6.686,121.898-59.649
					l-44.319-113.419L1259.116,1187.493z"/>
				
					<linearGradient id="SVGID_13_" gradientUnits="userSpaceOnUse" x1="1107.9902" y1="964.3203" x2="1156.5997" y2="1241.5743" gradientTransform="matrix(-1 0 0 1 2478.457 0)">
					<stop  offset="0" style="stop-color:#09005D"/>
					<stop  offset="1" style="stop-color:#1A0F91"/>
				</linearGradient>
				<path fill="url(#SVGID_13_)" d="M1388.003,1202.868c-2.571,0.829-5.263-0.818-5.664-3.489
					c-1.22-8.123-4.266-24.198-10.433-35.147c0,0,3.227-11.543-29.175,5.896c-32.4,17.439-81.065,43.058-109.717,27.803
					c-27.935-14.873-56.23-89.725,17.596-75.856c2.809,0.527,5.391-1.71,5.182-4.562c-0.906-12.302,0.313-40.604,28.974-49.688
					c26.819-8.502,41.504,3.605,47.554,10.914c1.78,2.15,5.084,2.106,6.781-0.109c8.034-10.488,29.854-32.814,61.975-18.659
					c26.456,11.66,30.57,27.956,30.134,38.11c-0.142,3.291,3.197,5.521,6.189,4.143c8.102-3.732,21.135-5.671,33.62,9.972
					c17.26,21.625-7.405,40.378-14.805,45.295c-1.212,0.806-1.966,2.142-1.975,3.597c-0.07,11.246-1.821,60.304-26.408,87.975
					c-2.129,2.396-6.064,1.694-7.305-1.261l-18.931-45.106c-0.879-2.095-3.214-3.169-5.378-2.472L1388.003,1202.868z"/>
				
					<linearGradient id="SVGID_14_" gradientUnits="userSpaceOnUse" x1="1101.0176" y1="1297.3721" x2="1048.7343" y2="1124.9294" gradientTransform="matrix(-1 0 0 1 2478.457 0)">
					<stop  offset="0" style="stop-color:#FEBBBA"/>
					<stop  offset="1" style="stop-color:#FF928E"/>
				</linearGradient>
				<path fill="url(#SVGID_14_)" d="M1387.603,1212.026c0,0,11.562-47.085,29.122-31.798s-4.578,48.936-24.695,55.348
					L1387.603,1212.026z"/>
			</g>
			
				<linearGradient id="SVGID_15_" gradientUnits="userSpaceOnUse" x1="1528.3633" y1="1639.4883" x2="1773.4121" y2="1639.4883" gradientTransform="matrix(-1 0 0 1 2478.457 0)">
				<stop  offset="0" style="stop-color:#09005D"/>
				<stop  offset="1" style="stop-color:#1A0F91"/>
			</linearGradient>
			<path fill="url(#SVGID_15_)" d="M950.094,1792.38l-85.734-285.916c-3.497-11.664-13.858-19.939-26.008-20.771l-115.753-7.92
				c-11.766-0.805-20.518,10.688-16.61,21.816l95.843,273.046c3.088,8.796,10.984,15.014,20.26,15.95l113.986,12.658
				L950.094,1792.38z"/>
			
				<ellipse transform="matrix(-0.8961 0.4439 -0.4439 -0.8961 2235.3372 2670.4355)" fill="#91B3FA" cx="805.076" cy="1596.879" rx="14.619" ry="26.108"/>
			
				<linearGradient id="SVGID_16_" gradientUnits="userSpaceOnUse" x1="1558.1055" y1="1746.6064" x2="1362.1624" y2="1800.3093" gradientTransform="matrix(-1 0 0 1 2478.457 0)">
				<stop  offset="0" style="stop-color:#09005D"/>
				<stop  offset="1" style="stop-color:#1A0F91"/>
			</linearGradient>
			<path fill="url(#SVGID_16_)" d="M936.077,1801.244c0.186,0,0.371-0.005,0.56-0.016l242.879-12.276
				c6.004-0.301,10.626-5.415,10.322-11.419c-0.303-6.006-5.438-10.726-11.422-10.322l-242.879,12.276
				c-6.004,0.302-10.625,5.416-10.323,11.42C925.51,1796.724,930.318,1801.244,936.077,1801.244z"/>
			<linearGradient id="SVGID_17_" gradientUnits="userSpaceOnUse" x1="1283.0684" y1="821.8379" x2="1207.3241" y2="1988.2974">
				<stop  offset="0" style="stop-color:#E1473D"/>
				<stop  offset="1" style="stop-color:#E9605A"/>
			</linearGradient>
			<path fill="url(#SVGID_17_)" d="M1229.829,1555.381c-0.927,0-1.68-0.749-1.683-1.677c-0.17-51.271,19.56-119.126,19.758-119.807
				c0.262-0.888,1.194-1.4,2.09-1.141c0.894,0.26,1.404,1.196,1.143,2.088c-0.198,0.674-19.791,68.071-19.624,118.847
				c0.003,0.931-0.748,1.687-1.679,1.689H1229.829z"/>
			<linearGradient id="SVGID_18_" gradientUnits="userSpaceOnUse" x1="1420.9688" y1="830.7822" x2="1345.2234" y2="1997.2579">
				<stop  offset="0" style="stop-color:#E1473D"/>
				<stop  offset="1" style="stop-color:#E9605A"/>
			</linearGradient>
			<path fill="url(#SVGID_18_)" d="M1340.286,1580.318c-0.364,0-0.733-0.118-1.042-0.361c-0.729-0.576-0.854-1.635-0.277-2.364
				c0.529-0.674,53.321-67.786,71.392-113.573c0.34-0.865,1.312-1.306,2.185-0.947c0.865,0.342,1.289,1.318,0.948,2.184
				c-18.253,46.248-71.349,113.747-71.882,114.421C1341.276,1580.098,1340.784,1580.318,1340.286,1580.318z"/>
			<linearGradient id="SVGID_19_" gradientUnits="userSpaceOnUse" x1="1523.5703" y1="837.4512" x2="1447.8257" y2="2003.9161">
				<stop  offset="0" style="stop-color:#E1473D"/>
				<stop  offset="1" style="stop-color:#E9605A"/>
			</linearGradient>
			<path fill="url(#SVGID_19_)" d="M1415.124,1683.509l-9.605-13.581c-0.538-0.76-0.356-1.812,0.402-2.348
				c0.757-0.542,1.809-0.358,2.346,0.401l8.031,11.355c74.909-32.841,121.286-122.457,121.747-123.364
				c0.421-0.825,1.433-1.16,2.264-0.733c0.829,0.421,1.157,1.438,0.736,2.266c-0.472,0.921-47.895,92.595-124.671,125.469
				L1415.124,1683.509z"/>
		</g>
	</g>
</g>
</svg>
